<svg width="144" height="33" viewBox="0 0 144 33" fill="none" xmlns="http://www.w3.org/2000/svg">
<path d="M38.7251 0.744995H34.7605L30.9203 5.80935V19.8492H34.8307V12.8777H38.6409V19.8492H42.5513V5.80935L38.7251 0.744995ZM38.6409 9.13283H34.8307V6.64602L36.5012 4.40919H36.9694L38.6409 6.64602V9.13283Z" fill="white"/>
<path d="M51.9354 4.71062H56.6099V0.980896H50.1165L46.2903 6.0261V19.8523H50.2008V12.8757H55.3334V9.13286H50.1897V7.01095L51.9354 4.71062Z" fill="white"/>
<path d="M80.2017 0.969788V14.2053L78.5423 16.4139H78.0499L76.3855 14.2053V0.969788H72.4751V15.0238L76.3735 20.074H80.2017L84.1051 15.0238V0.969788H80.2017Z" fill="white"/>
<path d="M113.264 4.71062V0.980896H102.951V14.8232L106.778 19.8493H113.265V16.1467H108.621L106.858 13.8081V12.5642H112.172V8.8869H106.858V4.71062H113.264Z" fill="white"/>
<path d="M95.5987 0.744995H91.6341L87.7939 5.80935V19.8492H91.7043V12.8777H95.5145V19.8492H99.4249V5.80935L95.5987 0.744995ZM95.5145 9.13283H91.7043V6.64602L93.3748 4.40919H93.843L95.5145 6.64602V9.13283Z" fill="white"/>
<path d="M125.621 12.1106L128.506 9.05523V4.40316L125.85 0.984924H116.788V19.8533H120.649V12.8394H121.78L124.826 17.4179V19.8462H128.683V16.4189C128.683 16.4189 126.172 12.915 125.621 12.1106ZM123.177 9.1258H120.647V4.71666H123.685L124.597 5.56643V8.21252L123.746 9.13184L123.177 9.1258Z" fill="white"/>
<path d="M24.3739 12.1065L27.2596 9.05319V4.3991L24.6035 0.981873H15.5414V19.8482H19.4027V12.8394H20.5337L23.5788 17.4178V19.8462H27.4361V16.4189C27.4361 16.4189 24.9254 12.9119 24.3739 12.1065ZM19.4037 9.12174V4.7126H22.4408L23.3532 5.56237V8.20947L22.4989 9.12879L19.4037 9.12174Z" fill="white"/>
<path d="M141.245 9.09654C141.516 8.59857 143.745 4.67127 143.745 4.67127V0.981873H139.883V3.96666L136.967 9.12375H135.971V0.981873H132.114V19.8533H135.974V12.8787H139.148L140.069 13.7254V19.8522H143.952V12.4986L141.245 9.09654Z" fill="white"/>
<path d="M7.7687 3.97271L4.85494 9.12375H3.85928V0.981873H0V19.8533H3.86129V12.8787H7.03073L7.95219 13.7254V19.8522H11.8365V12.4986C11.8365 12.4986 9.20252 9.18726 9.12431 9.09654C9.40105 8.59857 11.631 4.67127 11.631 4.67127V0.981873H7.7687" fill="white"/>
<path d="M58.8137 4.71464H62.2308V19.8492H66.0981V4.71464H69.5273V0.986938H58.8137V4.71464Z" fill="white"/>
<path d="M75.5002 31.3378L73.3705 28.9003V31.3378H72.5684V26.3117H73.3705V28.731L75.4922 26.3117H76.4608L74.2549 28.7965L76.5048 31.3367L75.5002 31.3378Z" fill="white"/>
<path d="M80.2037 28.8863V31.3388H79.4096V29.1393C79.4096 28.5707 79.1549 28.3006 78.6646 28.3006C78.5585 28.2977 78.4529 28.3165 78.3542 28.356C78.2556 28.3955 78.166 28.4548 78.0909 28.5303C78.0158 28.6058 77.9569 28.6958 77.9176 28.795C77.8783 28.8941 77.8595 29.0003 77.8624 29.107V31.3358H77.0703V27.6524H77.6809L77.7682 28.1988H77.7882C77.9047 28.0068 78.0684 27.8482 78.2635 27.7382C78.4586 27.6282 78.6785 27.5706 78.9022 27.5708C79.0771 27.5575 79.2528 27.5825 79.4171 27.6441C79.5815 27.7056 79.7306 27.8022 79.8543 27.9272C79.978 28.0522 80.0732 28.2027 80.1335 28.3682C80.1938 28.5338 80.2178 28.7105 80.2037 28.8863Z" fill="white"/>
<path d="M81.0159 29.4911C81.0263 29.1222 81.1445 28.7645 81.3559 28.4628C81.5672 28.161 81.8623 27.9285 82.2043 27.7942C82.5462 27.66 82.9199 27.63 83.2787 27.7079C83.6375 27.7858 83.9656 27.9683 84.2219 28.2325C84.4783 28.4966 84.6515 28.8309 84.7201 29.1934C84.7887 29.556 84.7496 29.9308 84.6076 30.2712C84.4657 30.6115 84.2271 30.9023 83.9218 31.1072C83.6165 31.3121 83.2579 31.4221 82.8909 31.4235C82.6396 31.4272 82.3902 31.3795 82.1579 31.2831C81.9256 31.1867 81.7153 31.0437 81.5398 30.8628C81.3643 30.682 81.2274 30.4671 81.1373 30.2312C81.0472 29.9954 81.0059 29.7435 81.0159 29.4911ZM83.9457 29.4911C83.9215 29.2847 83.8384 29.0897 83.7066 28.9297C83.5747 28.7696 83.3996 28.6513 83.2024 28.589C83.0052 28.5267 82.7943 28.5231 82.5951 28.5786C82.3959 28.634 82.2168 28.7462 82.0796 28.9017C81.9424 29.0571 81.8527 29.2491 81.8215 29.4545C81.7904 29.66 81.819 29.8701 81.9038 30.0596C81.9887 30.2491 82.1263 30.4099 82.3 30.5225C82.4737 30.6352 82.6761 30.695 82.8828 30.6947C83.0326 30.6897 83.1797 30.6542 83.3153 30.5902C83.4509 30.5263 83.5722 30.4352 83.6716 30.3226C83.7711 30.21 83.8467 30.0781 83.8938 29.9352C83.9409 29.7922 83.9585 29.6411 83.9457 29.4911Z" fill="white"/>
<path d="M87.9363 28.6423H87.9162L87.09 31.3377H86.1756L85.1619 27.6494H85.9951L86.6749 30.4718H86.694L87.5342 27.6494H88.3363L89.1756 30.4718H89.1896L89.8915 27.6494H90.6726L89.6649 31.3377H88.7625L87.9363 28.6423Z" fill="white"/>
<path d="M93.869 28.0627H93.8811C94.0002 27.9041 94.1547 27.7759 94.3322 27.6884C94.5097 27.6008 94.7051 27.5564 94.9028 27.5587C95.0801 27.5419 95.2589 27.5649 95.4264 27.626C95.5938 27.6872 95.7456 27.7849 95.8709 27.9122C95.9962 28.0395 96.0918 28.1932 96.1508 28.3622C96.2099 28.5311 96.2308 28.7112 96.2122 28.8893V31.3348H95.4201V29.1352C95.4201 28.5677 95.1775 28.2915 94.6812 28.2915C94.574 28.2825 94.4661 28.2968 94.3648 28.3333C94.2636 28.3699 94.1714 28.4279 94.0944 28.5034C94.0174 28.5789 93.9574 28.6702 93.9185 28.771C93.8796 28.8718 93.8627 28.9799 93.869 29.0879V31.3368H93.0749V25.9236H93.869V28.0627Z" fill="white"/>
<path d="M97.0275 29.4911C97.038 29.1222 97.1563 28.7645 97.3676 28.4628C97.5789 28.161 97.874 27.9285 98.2159 27.7942C98.5579 27.66 98.9316 27.63 99.2904 27.7079C99.6492 27.7858 99.9773 27.9683 100.234 28.2325C100.49 28.4966 100.663 28.8309 100.732 29.1934C100.8 29.556 100.761 29.9308 100.619 30.2712C100.477 30.6115 100.239 30.9023 99.9335 31.1072C99.6282 31.3121 99.2696 31.4221 98.9025 31.4235C98.6512 31.4272 98.4018 31.3795 98.1695 31.2831C97.9372 31.1867 97.727 31.0437 97.5515 30.8628C97.376 30.682 97.239 30.4671 97.1489 30.2312C97.0589 29.9954 97.0175 29.7435 97.0275 29.4911ZM99.9573 29.4911C99.9333 29.2844 99.8504 29.089 99.7185 28.9287C99.5865 28.7683 99.4113 28.6497 99.2138 28.5872C99.0164 28.5248 98.8051 28.521 98.6056 28.5765C98.4061 28.632 98.2268 28.7444 98.0894 28.9C97.9519 29.0556 97.8622 29.2479 97.8311 29.4537C97.7999 29.6594 97.8286 29.8698 97.9137 30.0595C97.9988 30.2492 98.1367 30.4101 98.3107 30.5228C98.4847 30.6355 98.6875 30.6952 98.8945 30.6947C99.0442 30.6897 99.1914 30.6542 99.327 30.5902C99.4626 30.5263 99.5838 30.4352 99.6833 30.3226C99.7827 30.21 99.8583 30.0781 99.9054 29.9352C99.9525 29.7922 99.9702 29.6411 99.9573 29.4911Z" fill="white"/>
<path d="M103.946 28.6423H103.926L103.1 31.3377H102.184L101.17 27.6494H102.004L102.681 30.4718H102.702L103.542 27.6494H104.344L105.184 30.4718H105.196L105.898 27.6494H106.679L105.671 31.3377H104.769L103.946 28.6423Z" fill="white"/>
<path d="M109.973 27.6494H110.987V28.3248H109.973V29.9618C109.963 30.0642 109.976 30.1676 110.012 30.2642C110.047 30.3608 110.104 30.4481 110.177 30.5195C110.251 30.591 110.34 30.6448 110.437 30.6768C110.534 30.7089 110.638 30.7184 110.739 30.7047C110.85 30.7023 110.96 30.6909 111.069 30.6704V31.3539C110.907 31.3852 110.743 31.4011 110.579 31.4013C110.392 31.4186 110.204 31.3943 110.028 31.3301C109.851 31.2659 109.691 31.1633 109.559 31.0298C109.427 30.8962 109.325 30.735 109.262 30.5575C109.199 30.38 109.176 30.1907 109.194 30.0031V28.3258H108.656V27.6504H109.216V26.7925H109.982L109.973 27.6494Z" fill="white"/>
<path d="M111.544 29.4911C111.555 29.1222 111.673 28.7645 111.884 28.4628C112.096 28.161 112.391 27.9285 112.733 27.7942C113.075 27.66 113.448 27.63 113.807 27.7079C114.166 27.7858 114.494 27.9683 114.75 28.2325C115.007 28.4966 115.18 28.8309 115.249 29.1934C115.317 29.556 115.278 29.9308 115.136 30.2712C114.994 30.6115 114.755 30.9023 114.45 31.1072C114.145 31.3121 113.786 31.4221 113.419 31.4235C113.168 31.4272 112.919 31.3795 112.686 31.2831C112.454 31.1867 112.244 31.0437 112.068 30.8628C111.893 30.682 111.756 30.4671 111.666 30.2312C111.576 29.9954 111.534 29.7435 111.544 29.4911ZM114.474 29.4911C114.45 29.2842 114.367 29.0887 114.236 28.9281C114.104 28.7674 113.929 28.6485 113.731 28.5857C113.534 28.5229 113.322 28.5189 113.123 28.5741C112.923 28.6293 112.743 28.7413 112.606 28.8968C112.468 29.0523 112.378 29.2445 112.346 29.4503C112.314 29.6561 112.343 29.8667 112.427 30.0567C112.512 30.2467 112.65 30.408 112.823 30.5212C112.997 30.6344 113.2 30.6946 113.407 30.6947C113.557 30.6903 113.705 30.6551 113.841 30.5914C113.977 30.5277 114.099 30.4367 114.199 30.324C114.298 30.2113 114.374 30.0793 114.422 29.9361C114.469 29.7929 114.487 29.6414 114.474 29.4911Z" fill="white"/>
<path d="M117.705 29.49C117.683 29.2533 117.709 29.0146 117.782 28.7882C117.854 28.5618 117.97 28.3522 118.125 28.172C118.279 27.9918 118.467 27.8445 118.679 27.739C118.891 27.6335 119.122 27.5718 119.358 27.5576C119.604 27.553 119.847 27.6144 120.062 27.7356C120.277 27.8568 120.456 28.0333 120.58 28.2471V25.9286H121.374V31.3388H120.715L120.62 30.7108C120.494 30.9318 120.312 31.1151 120.092 31.2421C119.873 31.3691 119.623 31.4351 119.37 31.4335C119.133 31.4188 118.901 31.3565 118.688 31.2502C118.475 31.144 118.285 30.9959 118.13 30.8148C117.975 30.6337 117.857 30.4231 117.784 30.1956C117.711 29.9681 117.684 29.7282 117.705 29.49ZM120.593 29.49C120.566 29.2884 120.481 29.099 120.349 28.9445C120.218 28.79 120.044 28.677 119.85 28.6188C119.656 28.5607 119.45 28.56 119.255 28.6168C119.061 28.6736 118.887 28.7855 118.754 28.9391C118.621 29.0927 118.535 29.2815 118.506 29.4829C118.477 29.6844 118.507 29.8899 118.591 30.075C118.675 30.2601 118.811 30.4168 118.981 30.5265C119.152 30.6362 119.35 30.6942 119.553 30.6936C119.701 30.6885 119.847 30.6526 119.982 30.5883C120.116 30.5239 120.236 30.4324 120.333 30.3195C120.431 30.2066 120.505 30.0747 120.549 29.932C120.594 29.7892 120.609 29.6388 120.593 29.49Z" fill="white"/>
<path d="M125.621 29.737H122.983C123.026 30.0342 123.178 30.3044 123.41 30.4943C123.641 30.6843 123.935 30.7802 124.233 30.7632C124.669 30.7569 125.091 30.6024 125.428 30.3247V31.0414C125.052 31.2972 124.606 31.4315 124.152 31.4265C123.654 31.4239 123.177 31.2276 122.821 30.879C122.464 30.5304 122.255 30.0565 122.239 29.5567C122.222 29.0568 122.399 28.57 122.732 28.1982C123.064 27.8264 123.527 27.5987 124.023 27.5627C124.256 27.564 124.486 27.6151 124.698 27.7126C124.91 27.81 125.099 27.9516 125.252 28.1279C125.405 28.3043 125.519 28.5113 125.587 28.7354C125.654 28.9594 125.674 29.1954 125.644 29.4275C125.643 29.5311 125.635 29.6345 125.621 29.737ZM124.888 29.2028C124.9 29.0797 124.886 28.9554 124.848 28.8379C124.81 28.7203 124.748 28.6121 124.665 28.52C124.583 28.4279 124.483 28.3541 124.371 28.3031C124.259 28.2521 124.137 28.2252 124.014 28.224C123.753 28.232 123.503 28.3359 123.313 28.5162C123.122 28.6965 123.004 28.9407 122.98 29.2028H124.888Z" fill="white"/>
<path d="M125.975 27.6494H126.822L127.742 30.4718H127.762L128.683 27.6494H129.503L128.165 31.3377H127.308L125.975 27.6494Z" fill="white"/>
<path d="M133.231 29.737H130.59C130.633 30.0342 130.785 30.3044 131.017 30.4943C131.248 30.6843 131.542 30.7802 131.84 30.7632C132.277 30.7572 132.699 30.6027 133.037 30.3247V31.0414C132.661 31.2972 132.216 31.4315 131.761 31.4265C131.264 31.4239 130.787 31.2276 130.43 30.879C130.073 30.5304 129.865 30.0565 129.848 29.5567C129.832 29.0568 130.008 28.57 130.341 28.1982C130.674 27.8264 131.137 27.5987 131.633 27.5627C131.866 27.564 132.095 27.6151 132.307 27.7125C132.519 27.81 132.707 27.9516 132.86 28.128C133.013 28.3044 133.127 28.5115 133.195 28.7355C133.262 28.9596 133.281 29.1955 133.251 29.4275C133.252 29.5311 133.245 29.6345 133.231 29.737ZM132.5 29.2028C132.512 29.0797 132.499 28.9554 132.46 28.8379C132.422 28.7203 132.36 28.6121 132.278 28.52C132.196 28.4279 132.095 28.3541 131.983 28.3031C131.871 28.2521 131.75 28.2252 131.627 28.224C131.365 28.2322 131.115 28.3362 130.925 28.5164C130.734 28.6966 130.615 28.9407 130.591 29.2028H132.5Z" fill="white"/>
<path d="M134.112 25.9277H134.904V31.3378H134.112V25.9277Z" fill="white"/>
<path d="M135.764 29.4911C135.774 29.1222 135.892 28.7645 136.104 28.4628C136.315 28.161 136.61 27.9285 136.952 27.7942C137.294 27.66 137.668 27.63 138.027 27.7079C138.385 27.7858 138.713 27.9683 138.97 28.2325C139.226 28.4966 139.399 28.8309 139.468 29.1934C139.537 29.556 139.497 29.9308 139.355 30.2712C139.214 30.6115 138.975 30.9023 138.67 31.1072C138.364 31.3121 138.006 31.4221 137.639 31.4235C137.387 31.4271 137.138 31.3792 136.906 31.2828C136.674 31.1863 136.463 31.0433 136.288 30.8625C136.113 30.6817 135.976 30.4668 135.885 30.231C135.795 29.9953 135.754 29.7435 135.764 29.4911ZM138.694 29.4911C138.706 29.3414 138.688 29.1906 138.641 29.048C138.594 28.9054 138.519 28.774 138.419 28.6616C138.32 28.5492 138.199 28.4583 138.064 28.3943C137.929 28.3304 137.782 28.2947 137.633 28.2895C137.39 28.2605 137.145 28.3062 136.929 28.4206C136.713 28.535 136.537 28.7128 136.424 28.9302C136.311 29.1476 136.266 29.3944 136.296 29.638C136.326 29.8815 136.428 30.1101 136.59 30.2936C136.752 30.4771 136.966 30.6067 137.203 30.6653C137.44 30.7239 137.689 30.7086 137.917 30.6215C138.145 30.5345 138.342 30.3797 138.481 30.1778C138.619 29.9759 138.693 29.7364 138.694 29.4911Z" fill="white"/>
<path d="M140.34 27.6494H140.998L141.085 28.2774C141.212 28.0571 141.394 27.8743 141.614 27.7474C141.833 27.6205 142.082 27.554 142.335 27.5546C142.796 27.6217 143.217 27.8527 143.523 28.2056C143.828 28.5585 143.998 29.01 144 29.4778C144.002 29.9457 143.838 30.3989 143.536 30.755C143.234 31.1112 142.815 31.3465 142.355 31.4184C142.109 31.4197 141.866 31.357 141.651 31.2362C141.435 31.1153 141.254 30.9406 141.126 30.7289V32.745H140.334L140.34 27.6494ZM143.209 29.4901C143.18 29.2892 143.095 29.1007 142.963 28.947C142.832 28.7933 142.659 28.6808 142.465 28.6229C142.272 28.565 142.066 28.5642 141.872 28.6204C141.678 28.6767 141.504 28.7876 141.371 28.9402C141.238 29.0928 141.151 29.2806 141.121 29.4812C141.091 29.6819 141.119 29.887 141.201 30.0722C141.284 30.2575 141.417 30.415 141.586 30.5263C141.755 30.6375 141.952 30.6977 142.154 30.6997C142.303 30.6937 142.45 30.6573 142.585 30.5925C142.72 30.5278 142.841 30.4361 142.939 30.323C143.038 30.21 143.113 30.0779 143.159 29.9349C143.205 29.7919 143.222 29.6409 143.209 29.4911V29.4901Z" fill="white"/>
</svg>
