<svg width="144" height="32" viewBox="0 0 144 32" fill="none" xmlns="http://www.w3.org/2000/svg">
<path d="M38.7251 0H34.7605L30.9203 5.06436V19.1042H34.8307V12.1327H38.6409V19.1042H42.5513V5.06436L38.7251 0ZM38.6409 8.38784H34.8307V5.90102L36.5012 3.6642H36.9694L38.6409 5.90102V8.38784Z" fill="#2F2F2F"/>
<path d="M51.9354 3.96562H56.6099V0.235901H50.1165L46.2903 5.2811V19.1073H50.2008V12.1307H55.3334V8.38786H50.1897V6.26595L51.9354 3.96562Z" fill="#2F2F2F"/>
<path d="M80.2017 0.224792V13.4603L78.5423 15.6689H78.0499L76.3855 13.4603V0.224792H72.4751V14.2788L76.3735 19.329H80.2017L84.1051 14.2788V0.224792H80.2017Z" fill="#2F2F2F"/>
<path d="M113.264 3.96562V0.235901H102.951V14.0782L106.778 19.1043H113.265V15.4018H108.621L106.858 13.0631V11.8192H112.172V8.1419H106.858V3.96562H113.264Z" fill="#2F2F2F"/>
<path d="M95.5987 0H91.6341L87.7939 5.06436V19.1042H91.7043V12.1327H95.5145V19.1042H99.4249V5.06436L95.5987 0ZM95.5145 8.38784H91.7043V5.90102L93.3748 3.6642H93.843L95.5145 5.90102V8.38784Z" fill="#2F2F2F"/>
<path d="M125.621 11.3656L128.506 8.31024V3.65817L125.85 0.239929H116.788V19.1083H120.649V12.0944H121.78L124.826 16.6729V19.1012H128.683V15.6739C128.683 15.6739 126.172 12.17 125.621 11.3656ZM123.177 8.3808H120.647V3.97167H123.685L124.597 4.82144V7.46752L123.746 8.38685L123.177 8.3808Z" fill="#2F2F2F"/>
<path d="M24.3739 11.3615L27.2596 8.3082V3.65411L24.6035 0.236877H15.5414V19.1032H19.4027V12.0944H20.5337L23.5788 16.6728V19.1012H27.4361V15.6739C27.4361 15.6739 24.9254 12.1669 24.3739 11.3615ZM19.4037 8.37674V3.96761H22.4408L23.3532 4.81738V7.46447L22.4989 8.3838L19.4037 8.37674Z" fill="#2F2F2F"/>
<path d="M141.245 8.35154C141.516 7.85357 143.745 3.92628 143.745 3.92628V0.236877H139.883V3.22166L136.967 8.37876H135.971V0.236877H132.114V19.1083H135.974V12.1337H139.148L140.069 12.9804V19.1072H143.952V11.7537L141.245 8.35154Z" fill="#2F2F2F"/>
<path d="M7.7687 3.22771L4.85494 8.37876H3.85928V0.236877H0V19.1083H3.86129V12.1337H7.03073L7.95219 12.9804V19.1072H11.8365V11.7537C11.8365 11.7537 9.20252 8.44226 9.12431 8.35154C9.40105 7.85357 11.631 3.92628 11.631 3.92628V0.236877H7.7687" fill="#2F2F2F"/>
<path d="M58.8137 3.96965H62.2308V19.1042H66.0981V3.96965H69.5273V0.241943H58.8137V3.96965Z" fill="#2F2F2F"/>
<path d="M75.5002 30.5928L73.3705 28.1553V30.5928H72.5684V25.5667H73.3705V27.986L75.4922 25.5667H76.4608L74.2549 28.0515L76.5048 30.5918L75.5002 30.5928Z" fill="#2F2F2F"/>
<path d="M80.2037 28.1413V30.5938H79.4096V28.3943C79.4096 27.8257 79.1549 27.5556 78.6646 27.5556C78.5585 27.5527 78.4529 27.5715 78.3542 27.611C78.2556 27.6505 78.166 27.7098 78.0909 27.7853C78.0158 27.8608 77.9569 27.9508 77.9176 28.05C77.8783 28.1491 77.8595 28.2553 77.8624 28.362V30.5908H77.0703V26.9074H77.6809L77.7682 27.4538H77.7882C77.9047 27.2618 78.0684 27.1032 78.2635 26.9932C78.4586 26.8832 78.6785 26.8256 78.9022 26.8258C79.0771 26.8125 79.2528 26.8376 79.4171 26.8991C79.5815 26.9606 79.7306 27.0572 79.8543 27.1822C79.978 27.3072 80.0732 27.4577 80.1335 27.6232C80.1938 27.7888 80.2178 27.9655 80.2037 28.1413Z" fill="#2F2F2F"/>
<path d="M81.0159 28.7461C81.0263 28.3772 81.1445 28.0195 81.3559 27.7178C81.5672 27.416 81.8623 27.1835 82.2043 27.0492C82.5462 26.915 82.9199 26.885 83.2787 26.9629C83.6375 27.0408 83.9656 27.2233 84.2219 27.4875C84.4783 27.7517 84.6515 28.0859 84.7201 28.4484C84.7887 28.811 84.7496 29.1858 84.6076 29.5262C84.4657 29.8665 84.2271 30.1573 83.9218 30.3622C83.6165 30.5671 83.2579 30.6771 82.8909 30.6785C82.6396 30.6822 82.3902 30.6345 82.1579 30.5381C81.9256 30.4417 81.7153 30.2987 81.5398 30.1178C81.3643 29.937 81.2274 29.7221 81.1373 29.4862C81.0472 29.2504 81.0059 28.9985 81.0159 28.7461ZM83.9457 28.7461C83.9215 28.5397 83.8384 28.3447 83.7066 28.1847C83.5747 28.0246 83.3996 27.9063 83.2024 27.844C83.0052 27.7817 82.7943 27.7781 82.5951 27.8336C82.3959 27.889 82.2168 28.0013 82.0796 28.1567C81.9424 28.3121 81.8527 28.5041 81.8215 28.7095C81.7904 28.915 81.819 29.1251 81.9038 29.3146C81.9887 29.5041 82.1263 29.6649 82.3 29.7775C82.4737 29.8902 82.6761 29.95 82.8828 29.9497C83.0326 29.9448 83.1797 29.9092 83.3153 29.8452C83.4509 29.7813 83.5722 29.6902 83.6716 29.5776C83.7711 29.465 83.8467 29.3331 83.8938 29.1902C83.9409 29.0472 83.9585 28.8961 83.9457 28.7461Z" fill="#2F2F2F"/>
<path d="M87.9363 27.8973H87.9162L87.09 30.5927H86.1756L85.1619 26.9044H85.9951L86.6749 29.7269H86.694L87.5342 26.9044H88.3363L89.1756 29.7269H89.1896L89.8915 26.9044H90.6726L89.6649 30.5927H88.7625L87.9363 27.8973Z" fill="#2F2F2F"/>
<path d="M93.869 27.3177H93.8811C94.0002 27.1591 94.1547 27.0309 94.3322 26.9434C94.5097 26.8558 94.7051 26.8114 94.9028 26.8137C95.0801 26.7969 95.2589 26.8199 95.4264 26.881C95.5938 26.9422 95.7456 27.0399 95.8709 27.1672C95.9962 27.2945 96.0918 27.4482 96.1508 27.6172C96.2099 27.7861 96.2308 27.9662 96.2122 28.1443V30.5898H95.4201V28.3902C95.4201 27.8227 95.1775 27.5465 94.6812 27.5465C94.574 27.5375 94.4661 27.5518 94.3648 27.5884C94.2636 27.6249 94.1714 27.6829 94.0944 27.7584C94.0174 27.8339 93.9574 27.9252 93.9185 28.026C93.8796 28.1268 93.8627 28.2349 93.869 28.3429V30.5918H93.0749V25.1786H93.869V27.3177Z" fill="#2F2F2F"/>
<path d="M97.0275 28.7461C97.038 28.3772 97.1563 28.0195 97.3676 27.7178C97.5789 27.416 97.874 27.1835 98.2159 27.0492C98.5579 26.915 98.9316 26.885 99.2904 26.9629C99.6492 27.0408 99.9773 27.2233 100.234 27.4875C100.49 27.7517 100.663 28.0859 100.732 28.4484C100.8 28.811 100.761 29.1858 100.619 29.5262C100.477 29.8665 100.239 30.1573 99.9335 30.3622C99.6282 30.5671 99.2696 30.6771 98.9025 30.6785C98.6512 30.6822 98.4018 30.6345 98.1695 30.5381C97.9372 30.4417 97.727 30.2987 97.5515 30.1178C97.376 29.937 97.239 29.7221 97.1489 29.4862C97.0589 29.2504 97.0175 28.9985 97.0275 28.7461ZM99.9573 28.7461C99.9333 28.5394 99.8504 28.344 99.7185 28.1837C99.5865 28.0233 99.4113 27.9047 99.2138 27.8422C99.0164 27.7798 98.8051 27.776 98.6056 27.8315C98.4061 27.887 98.2268 27.9994 98.0894 28.155C97.9519 28.3106 97.8622 28.5029 97.8311 28.7087C97.7999 28.9144 97.8286 29.1248 97.9137 29.3145C97.9988 29.5042 98.1367 29.6651 98.3107 29.7778C98.4847 29.8905 98.6875 29.9502 98.8945 29.9497C99.0442 29.9448 99.1914 29.9092 99.327 29.8452C99.4626 29.7813 99.5838 29.6902 99.6833 29.5776C99.7827 29.465 99.8583 29.3331 99.9054 29.1902C99.9525 29.0472 99.9702 28.8961 99.9573 28.7461Z" fill="#2F2F2F"/>
<path d="M103.946 27.8973H103.926L103.1 30.5927H102.184L101.17 26.9044H102.004L102.681 29.7269H102.702L103.542 26.9044H104.344L105.184 29.7269H105.196L105.898 26.9044H106.679L105.671 30.5927H104.769L103.946 27.8973Z" fill="#2F2F2F"/>
<path d="M109.973 26.9044H110.987V27.5798H109.973V29.2168C109.963 29.3192 109.976 29.4226 110.012 29.5192C110.047 29.6158 110.104 29.7031 110.177 29.7745C110.251 29.846 110.34 29.8998 110.437 29.9318C110.534 29.9639 110.638 29.9734 110.739 29.9597C110.85 29.9573 110.96 29.9459 111.069 29.9254V30.6089C110.907 30.6402 110.743 30.6561 110.579 30.6563C110.392 30.6736 110.204 30.6493 110.028 30.5851C109.851 30.5209 109.691 30.4183 109.559 30.2848C109.427 30.1512 109.325 29.99 109.262 29.8125C109.199 29.635 109.176 29.4457 109.194 29.2581V27.5808H108.656V26.9054H109.216V26.0475H109.982L109.973 26.9044Z" fill="#2F2F2F"/>
<path d="M111.544 28.7461C111.555 28.3772 111.673 28.0195 111.884 27.7178C112.096 27.416 112.391 27.1835 112.733 27.0492C113.075 26.915 113.448 26.885 113.807 26.9629C114.166 27.0408 114.494 27.2233 114.75 27.4875C115.007 27.7517 115.18 28.0859 115.249 28.4484C115.317 28.811 115.278 29.1858 115.136 29.5262C114.994 29.8665 114.755 30.1573 114.45 30.3622C114.145 30.5671 113.786 30.6771 113.419 30.6785C113.168 30.6822 112.919 30.6345 112.686 30.5381C112.454 30.4417 112.244 30.2987 112.068 30.1178C111.893 29.937 111.756 29.7221 111.666 29.4862C111.576 29.2504 111.534 28.9985 111.544 28.7461ZM114.474 28.7461C114.45 28.5392 114.367 28.3437 114.236 28.1831C114.104 28.0224 113.929 27.9035 113.731 27.8407C113.534 27.7779 113.322 27.7739 113.123 27.8291C112.923 27.8843 112.743 27.9963 112.606 28.1518C112.468 28.3073 112.378 28.4995 112.346 28.7053C112.314 28.9111 112.343 29.1217 112.427 29.3117C112.512 29.5017 112.65 29.663 112.823 29.7762C112.997 29.8894 113.2 29.9497 113.407 29.9497C113.557 29.9453 113.705 29.9102 113.841 29.8464C113.977 29.7827 114.099 29.6917 114.199 29.579C114.298 29.4663 114.374 29.3343 114.422 29.1911C114.469 29.0479 114.487 28.8965 114.474 28.7461Z" fill="#2F2F2F"/>
<path d="M117.705 28.745C117.683 28.5083 117.709 28.2696 117.782 28.0432C117.854 27.8168 117.97 27.6072 118.125 27.427C118.279 27.2468 118.467 27.0995 118.679 26.994C118.891 26.8885 119.122 26.8268 119.358 26.8126C119.604 26.808 119.847 26.8694 120.062 26.9906C120.277 27.1118 120.456 27.2884 120.58 27.5021V25.1837H121.374V30.5938H120.715L120.62 29.9658C120.494 30.1868 120.312 30.3701 120.092 30.4971C119.873 30.6241 119.623 30.6902 119.37 30.6885C119.133 30.6738 118.901 30.6115 118.688 30.5052C118.475 30.399 118.285 30.2509 118.13 30.0698C117.975 29.8887 117.857 29.6781 117.784 29.4506C117.711 29.2231 117.684 28.9832 117.705 28.745ZM120.593 28.745C120.566 28.5434 120.481 28.354 120.349 28.1995C120.218 28.045 120.044 27.932 119.85 27.8739C119.656 27.8157 119.45 27.815 119.255 27.8718C119.061 27.9286 118.887 28.0405 118.754 28.1941C118.621 28.3477 118.535 28.5365 118.506 28.7379C118.477 28.9394 118.507 29.1449 118.591 29.33C118.675 29.5151 118.811 29.6718 118.981 29.7815C119.152 29.8912 119.35 29.9493 119.553 29.9486C119.701 29.9435 119.847 29.9076 119.982 29.8433C120.116 29.7789 120.236 29.6874 120.333 29.5745C120.431 29.4616 120.505 29.3297 120.549 29.187C120.594 29.0443 120.609 28.8938 120.593 28.745Z" fill="#2F2F2F"/>
<path d="M125.621 28.992H122.983C123.026 29.2892 123.178 29.5594 123.41 29.7493C123.641 29.9393 123.935 30.0352 124.233 30.0182C124.669 30.012 125.091 29.8574 125.428 29.5797V30.2964C125.052 30.5522 124.606 30.6865 124.152 30.6815C123.654 30.6789 123.177 30.4826 122.821 30.134C122.464 29.7854 122.255 29.3115 122.239 28.8117C122.222 28.3118 122.399 27.825 122.732 27.4532C123.064 27.0814 123.527 26.8537 124.023 26.8177C124.256 26.819 124.486 26.8701 124.698 26.9676C124.91 27.065 125.099 27.2066 125.252 27.3829C125.405 27.5593 125.519 27.7663 125.587 27.9904C125.654 28.2144 125.674 28.4504 125.644 28.6826C125.643 28.7861 125.635 28.8895 125.621 28.992ZM124.888 28.4578C124.9 28.3347 124.886 28.2104 124.848 28.0929C124.81 27.9753 124.748 27.8671 124.665 27.775C124.583 27.6829 124.483 27.6091 124.371 27.5581C124.259 27.5071 124.137 27.4802 124.014 27.479C123.753 27.487 123.503 27.5909 123.313 27.7712C123.122 27.9515 123.004 28.1957 122.98 28.4578H124.888Z" fill="#2F2F2F"/>
<path d="M125.975 26.9044H126.822L127.742 29.7269H127.762L128.683 26.9044H129.503L128.165 30.5927H127.308L125.975 26.9044Z" fill="#2F2F2F"/>
<path d="M133.231 28.992H130.59C130.633 29.2892 130.785 29.5594 131.017 29.7493C131.248 29.9393 131.542 30.0352 131.84 30.0182C132.277 30.0122 132.699 29.8577 133.037 29.5797V30.2964C132.661 30.5522 132.216 30.6865 131.761 30.6815C131.264 30.6789 130.787 30.4826 130.43 30.134C130.073 29.7854 129.865 29.3115 129.848 28.8117C129.832 28.3118 130.008 27.825 130.341 27.4532C130.674 27.0814 131.137 26.8537 131.633 26.8177C131.866 26.819 132.095 26.8701 132.307 26.9675C132.519 27.065 132.707 27.2066 132.86 27.383C133.013 27.5594 133.127 27.7665 133.195 27.9905C133.262 28.2146 133.281 28.4505 133.251 28.6826C133.252 28.7861 133.245 28.8895 133.231 28.992ZM132.5 28.4578C132.512 28.3347 132.499 28.2104 132.46 28.0929C132.422 27.9753 132.36 27.8671 132.278 27.775C132.196 27.6829 132.095 27.6091 131.983 27.5581C131.871 27.5071 131.75 27.4802 131.627 27.479C131.365 27.4872 131.115 27.5912 130.925 27.7714C130.734 27.9517 130.615 28.1957 130.591 28.4578H132.5Z" fill="#2F2F2F"/>
<path d="M134.112 25.1827H134.904V30.5928H134.112V25.1827Z" fill="#2F2F2F"/>
<path d="M135.764 28.7461C135.774 28.3772 135.892 28.0195 136.104 27.7178C136.315 27.416 136.61 27.1835 136.952 27.0492C137.294 26.915 137.668 26.885 138.027 26.9629C138.385 27.0408 138.713 27.2233 138.97 27.4875C139.226 27.7517 139.399 28.0859 139.468 28.4484C139.537 28.811 139.497 29.1858 139.355 29.5262C139.214 29.8665 138.975 30.1573 138.67 30.3622C138.364 30.5671 138.006 30.6771 137.639 30.6785C137.387 30.6821 137.138 30.6342 136.906 30.5378C136.674 30.4413 136.463 30.2983 136.288 30.1175C136.113 29.9367 135.976 29.7218 135.885 29.486C135.795 29.2503 135.754 28.9985 135.764 28.7461ZM138.694 28.7461C138.706 28.5964 138.688 28.4456 138.641 28.303C138.594 28.1604 138.519 28.029 138.419 27.9166C138.32 27.8042 138.199 27.7133 138.064 27.6493C137.929 27.5854 137.782 27.5497 137.633 27.5445C137.39 27.5155 137.145 27.5612 136.929 27.6756C136.713 27.7901 136.537 27.9678 136.424 28.1852C136.311 28.4026 136.266 28.6494 136.296 28.893C136.326 29.1365 136.428 29.3651 136.59 29.5486C136.752 29.7321 136.966 29.8617 137.203 29.9203C137.44 29.9789 137.689 29.9636 137.917 29.8765C138.145 29.7895 138.342 29.6347 138.481 29.4328C138.619 29.2309 138.693 28.9914 138.694 28.7461Z" fill="#2F2F2F"/>
<path d="M140.34 26.9044H140.998L141.085 27.5324C141.212 27.3121 141.394 27.1293 141.614 27.0024C141.833 26.8755 142.082 26.809 142.335 26.8096C142.796 26.8767 143.217 27.1077 143.523 27.4606C143.828 27.8135 143.998 28.265 144 28.7328C144.002 29.2007 143.838 29.6539 143.536 30.01C143.234 30.3662 142.815 30.6015 142.355 30.6734C142.109 30.6748 141.866 30.612 141.651 30.4912C141.435 30.3704 141.254 30.1956 141.126 29.9839V32H140.334L140.34 26.9044ZM143.209 28.7451C143.18 28.5442 143.095 28.3557 142.963 28.202C142.832 28.0483 142.659 27.9358 142.465 27.8779C142.272 27.82 142.066 27.8192 141.872 27.8754C141.678 27.9317 141.504 28.0426 141.371 28.1952C141.238 28.3478 141.151 28.5356 141.121 28.7362C141.091 28.9369 141.119 29.142 141.201 29.3272C141.284 29.5125 141.417 29.67 141.586 29.7813C141.755 29.8925 141.952 29.9527 142.154 29.9547C142.303 29.9487 142.45 29.9123 142.585 29.8475C142.72 29.7828 142.841 29.6911 142.939 29.578C143.038 29.465 143.113 29.3329 143.159 29.1899C143.205 29.0469 143.222 28.8959 143.209 28.7461V28.7451Z" fill="#2F2F2F"/>
</svg>
